<svg xmlns="http://www.w3.org/2000/svg" version="1.1" xmlns:xlink="http://www.w3.org/1999/xlink" xmlns:svgjs="http://svgjs.dev/svgjs" width="100%" height="100%" viewBox="0 0 1000 600"><rect width="1000" height="600" x="0" y="0" fill="Transparent"/><g><rect width="333.3333333333333" height="333.3333333333333" rx="13.333333333333334" ry="13.333333333333334" y="249.7298811423426" fill="#dea2ac" transform="matrix(0.5494320567353137,0,0,0.5494320567353136,0,71.21839266624438)" x="227.50772094726562"/><path d="M384.11009148101306 452.87789429257566L388.9996238131255 454.8337072254206Q383.9199430014309 472.6261721006074 370.2292524715162 481.91628353162093Q356.5385619416014 491.20639496263453 337.95833907957433 491.20639496263453L337.95833907957433 491.20639496263453Q312.7229194321719 491.20639496263453 298.7334241486281 473.41393008744774Q284.7439288650843 455.62146521226094 284.7439288650843 419.62907443421125L284.7439288650843 419.62907443421125Q284.7439288650843 406.1285323838787 287.10720282560527 392.2476933743818Q289.44331271761456 378.36685436488494 295.3107515161494 367.1209300010264Q301.17819031468434 355.8750056371679 311.0659112529561 348.62219934453447Q320.9264681227161 341.3965571204128 336.00252614672934 341.3965571204128L336.00252614672934 341.3965571204128Q343.41831685043314 341.3965571204128 350.07351363580835 343.35237005325774Q356.72871042118356 345.30818298610274 361.72689902734294 349.1111525777457Q366.69792356499056 352.94128623790044 369.631642964258 358.61857655685316Q372.5653623635254 364.2687028072942 372.5653623635254 371.9018060590918L372.5653623635254 371.9018060590918Q372.5653623635254 378.1767058853028 370.2292524715162 381.8710192028988Q367.86597851099515 385.5924965890066 362.2158522605542 385.5924965890066L362.2158522605542 385.5924965890066Q359.4722813408689 385.5924965890066 357.02751517481266 384.72324639663105Q354.5827490087565 383.82683213574376 353.00723303507584 382.0883317509927L353.00723303507584 382.0883317509927Q354.77289748833863 380.7029642568942 356.2397571879724 376.41104143203995Q357.70661688760606 372.091954538674 357.70661688760606 366.63197676781516L357.70661688760606 366.63197676781516Q357.70661688760606 357.2332090627546 353.197381514658 352.8326299638535Q348.71531021022156 348.4320508649523 341.272355438006 348.4320508649523L341.272355438006 348.4320508649523Q332.4711972402037 348.4320508649523 326.1148052084576 354.217997457952Q319.75841317671143 359.97677998243995 315.6566388314394 369.5656961670826Q311.55486448616733 379.1546123517253 309.68054375885754 391.2697869079593Q307.83338710005955 403.3849614641934 307.83338710005955 416.3150580757796L307.83338710005955 416.3150580757796Q307.83338710005955 432.3418584977036 310.57695801974484 443.696439135609Q313.3205289394301 455.02385570500275 318.59035823070684 462.27666199763615Q323.86018752198356 469.50230422175775 331.60194704782816 472.9249768542365Q339.31654250516107 476.34764948671517 349.28575564896806 476.34764948671517L349.28575564896806 476.34764948671517Q361.9985397124603 476.34764948671517 370.41940095109834 470.7790154418094Q378.84026218973634 465.2103813969036 384.11009148101306 452.87789429257566L384.11009148101306 452.87789429257566ZM394.26945310440215 388.7163644678562L394.26945310440215 388.7163644678562Q394.26945310440215 394.0133578276446 395.16586736528944 397.9249836933346Q396.035117557665 401.83660955902445 397.20317250366963 404.47152420466284Q398.398391518186 407.1064388503012 399.45779019014367 408.68195482398187Q400.54435293061306 410.23030672915075 401.1147983693595 411.20821319557325L401.1147983693595 411.20821319557325Q390.16767875913007 411.20821319557325 383.9199430014309 405.6395791506675Q377.64504317522 400.07094510576167 377.64504317522 388.52621598827403L377.64504317522 388.52621598827403Q377.64504317522 378.74715132404924 382.6432317813793 370.13614160582904Q387.6414203875387 361.55229595612064 396.14377383171194 355.1959039243745Q404.6461272758852 348.83951189262837 416.0822001193258 345.1180345065206Q427.5182729627665 341.3965571204128 440.4483695743527 341.3965571204128L440.4483695743527 341.3965571204128Q451.9659346233285 341.3965571204128 460.4954521360135 344.2216202456333Q468.99780558018676 347.0738474393656 474.5664396250926 351.96337977147795Q480.1350736699983 356.8529121035903 482.87864458968363 363.10064786128953Q485.6222155093689 369.37554768750044 485.6222155093689 376.00358040436396L485.6222155093689 376.00358040436396Q485.6222155093689 383.44653517657946 481.710589643679 390.7808336747481Q477.7989637779891 398.11513217291673 470.35600900577356 403.19481298461125L470.35600900577356 403.19481298461125Q485.43206702978677 404.7703289582919 494.5048659127064 415.1198390612632Q503.6048288641379 425.49651323274617 503.6048288641379 444.0767360947733L503.6048288641379 444.0767360947733Q503.6048288641379 450.32447185247247 502.2466254385511 458.4465283374814Q500.8612579444526 466.5685848224904 497.24843683239175 473.902883320659Q493.6356157203309 481.2371818188276 487.17056741453786 486.3168626305221Q480.7326831772565 491.3965434422167 470.7634700334496 491.3965434422167L470.7634700334496 491.3965434422167Q466.4443831400836 491.3965434422167 462.5327572743937 490.337144770259Q458.6211314087037 489.2505820297896 455.6059198039011 487.2132768914094Q452.5635441305867 485.14880768451746 450.7978796773239 481.91628353162093Q449.0322152240611 478.6837593787244 449.0322152240611 474.5819850334524L449.0322152240611 474.5819850334524Q449.0322152240611 473.41393008744774 449.249527772155 471.34946088055585Q449.4396762517371 469.31215574217566 449.8199732109015 467.9267882480772L449.8199732109015 467.9267882480772Q452.5635441305867 472.2458751414431 456.6653184758588 473.902883320659Q460.76709282113086 475.5598914998749 464.2984217276565 475.5598914998749L464.2984217276565 475.5598914998749Q469.1879540597689 475.5598914998749 472.42047821266544 472.81632058018954Q475.653002365562 470.09991372901595 477.39150275031307 465.78082683565003Q479.1571672035759 461.4889040107958 479.83626891636925 456.30056692505434Q480.54253469767434 451.1122298393128 480.54253469767434 446.03254902761824L480.54253469767434 446.03254902761824Q480.54253469767434 427.4523261655911 473.39838467908794 419.24877747504695Q466.2542346605014 411.0180647159911 453.5414505970092 411.0180647159911L453.5414505970092 411.0180647159911Q451.2053407049999 411.0180647159911 447.67401179847434 411.20821319557325Q444.14268289194865 411.42552574366715 440.828666533517 411.80582270283145L440.828666533517 411.80582270283145L440.828666533517 488.08252708378495L419.6950212313867 488.08252708378495L419.6950212313867 362.72035090212523L440.828666533517 359.7866315028578L440.828666533517 403.9825709714516L443.57223745320226 403.9825709714516Q449.0322152240611 403.9825709714516 453.84025535063824 401.3476563258132Q458.6211314087037 398.7127416801749 462.1524603152294 394.3936547868089Q465.6566251532433 390.1017319619547 467.6124380860882 384.9133948762132Q469.5682510189332 379.72505779047174 469.5682510189332 374.64537697877716L469.5682510189332 374.64537697877716Q469.5682510189332 363.10064786128953 461.74499928755336 355.7663493631209Q453.9217475561735 348.4320508649523 438.4925566415077 348.4320508649523L438.4925566415077 348.4320508649523Q430.07169540286964 348.4320508649523 422.05829519190763 350.87681703100856Q414.0448949809456 353.32158319706474 407.87865142878167 358.31977180322406Q401.7124078766177 363.2907963408717 397.9909304905099 370.9238995926694Q394.26945310440215 378.5570028444671 394.26945310440215 388.7163644678562Z " fill="#ffffff" transform="matrix(0.5494320567353137,0,0,0.5494320567353136,0,71.21839266624438)"/><path d="M743.5405419204661 452.87789429257566L748.4300742525785 454.8337072254206Q743.350393440884 472.6261721006074 729.6597029109691 481.91628353162093Q715.9690123810544 491.20639496263453 697.3887895190273 491.20639496263453L697.3887895190273 491.20639496263453Q672.153369871625 491.20639496263453 658.1638745880812 473.41393008744774Q644.1743793045373 455.62146521226094 644.1743793045373 419.62907443421125L644.1743793045373 419.62907443421125Q644.1743793045373 406.1285323838787 646.5376532650583 392.2476933743818Q648.8737631570675 378.36685436488494 654.7412019556025 367.1209300010264Q660.6086407541374 355.8750056371679 670.4963616924091 348.62219934453447Q680.3569185621691 341.3965571204128 695.4329765861823 341.3965571204128L695.4329765861823 341.3965571204128Q702.8487672898862 341.3965571204128 709.5039640752614 343.35237005325774Q716.1591608606366 345.30818298610274 721.157349466796 349.1111525777457Q726.1283740044436 352.94128623790044 729.0620934037111 358.61857655685316Q731.9958128029784 364.2687028072942 731.9958128029784 371.9018060590918L731.9958128029784 371.9018060590918Q731.9958128029784 378.1767058853028 729.6597029109691 381.8710192028988Q727.2964289504482 385.5924965890066 721.6463027000073 385.5924965890066L721.6463027000073 385.5924965890066Q718.9027317803219 385.5924965890066 716.4579656142657 384.72324639663105Q714.0131994482094 383.82683213574376 712.4376834745289 382.0883317509927L712.4376834745289 382.0883317509927Q714.2033479277917 380.7029642568942 715.6702076274254 376.41104143203995Q717.1370673270591 372.091954538674 717.1370673270591 366.63197676781516L717.1370673270591 366.63197676781516Q717.1370673270591 357.2332090627546 712.627831954111 352.8326299638535Q708.1457606496747 348.4320508649523 700.702805877459 348.4320508649523L700.702805877459 348.4320508649523Q691.9016476796568 348.4320508649523 685.5452556479106 354.217997457952Q679.1888636161646 359.97677998243995 675.0870892708924 369.5656961670826Q670.9853149256203 379.1546123517253 669.1109941983107 391.2697869079593Q667.2638375395126 403.3849614641934 667.2638375395126 416.3150580757796L667.2638375395126 416.3150580757796Q667.2638375395126 432.3418584977036 670.0074084591979 443.696439135609Q672.7509793788831 455.02385570500275 678.0208086701598 462.27666199763615Q683.2906379614366 469.50230422175775 691.0323974872813 472.9249768542365Q698.7469929446141 476.34764948671517 708.7162060884211 476.34764948671517L708.7162060884211 476.34764948671517Q721.4289901519134 476.34764948671517 729.8498513905513 470.7790154418094Q738.2707126291893 465.2103813969036 743.5405419204661 452.87789429257566L743.5405419204661 452.87789429257566ZM795.3695846408575 390.2918804415369L814.9277139693072 390.2918804415369L814.9277139693072 456.7895201582656Q814.9277139693072 458.7453330911105 815.1178624488894 461.67905249037796Q815.3080109284715 464.6127718896454 816.2044251893587 467.4378350148659Q817.0736753817343 470.2900622085981 818.8393398349972 472.32736734697835Q820.6050042882599 474.39183655387023 823.7288721671096 474.39183655387023L823.7288721671096 474.39183655387023Q833.3177883517521 474.39183655387023 837.7998596561886 453.0680427721578L837.7998596561886 453.0680427721578L845.052665948822 453.0680427721578Q842.9067045363948 465.40052987648573 839.5655241094514 472.5446798950722Q836.2515077510196 479.6616658451469 832.5300303649119 483.38314323125473Q828.8085529788041 487.10462061736246 824.8969271131141 488.1911833578319Q820.9853012474242 489.2505820297896 817.8614333685746 489.2505820297896L817.8614333685746 489.2505820297896Q813.3521979956265 489.2505820297896 810.1468379112417 487.70223012462066Q806.9143137583452 486.12671415093996 804.6596960718712 483.5732917108369Q802.4050783853971 481.04703333924544 801.0468749598103 477.70585291230196Q799.6615074657118 474.39183655387023 798.9009135473832 470.67035916776246L798.9009135473832 470.67035916776246Q795.9671941481157 478.3034624195601 789.3934895682758 483.7906042589307Q782.8469490569474 489.2505820297896 773.4753454203988 489.2505820297896L773.4753454203988 489.2505820297896Q767.6079066218638 489.2505820297896 761.631811549282 486.9144721377803Q755.6557164767001 484.5511981772593 750.8748404186347 479.1727126119357Q746.0939643605692 473.79422704661204 743.0515886872548 465.2918736024388Q740.0092130139404 456.7895201582656 740.0092130139404 444.4570330539376L740.0092130139404 444.4570330539376Q740.0092130139404 435.4657263765531 742.0736822208323 425.6866617123283Q744.1381514277243 415.9075970481035 748.6202227321606 407.8941968371415Q753.1294581051087 399.8807966261795 760.1649518496482 394.58380326639104Q767.2004455941878 389.3139739751144 777.1696587379947 389.3139739751144L777.1696587379947 389.3139739751144Q779.5329326985158 389.3139739751144 782.1678473441541 389.8029272083256Q784.8027619897924 390.2918804415369 787.2475281558486 391.45993538754146Q789.6922943219048 392.6279903335461 791.8382557343319 394.692459540438Q794.0113812152708 396.75692874732994 795.3695846408575 399.69064814659737L795.3695846408575 399.69064814659737L795.3695846408575 390.2918804415369ZM778.3648777525111 474.39183655387023L778.3648777525111 474.39183655387023Q781.2985971517785 474.39183655387023 784.3138087565812 472.73482837465434Q787.3561844298956 471.07782019543845 789.8009505959518 468.2255930017062Q792.245716762008 465.40052987648573 793.7940686671769 461.4889040107958Q795.3695846408575 457.5772781451059 795.3695846408575 453.0680427721578L795.3695846408575 453.0680427721578L795.3695846408575 408.4918063443997Q794.0113812152708 405.3407743970384 791.1591540215386 402.7058597514Q788.334090896318 400.07094510576167 783.8248555233699 400.07094510576167L783.8248555233699 400.07094510576167Q777.5771197656708 400.07094510576167 773.0678843927227 404.2813757250807Q768.5858130882863 408.4918063443997 765.842242168601 414.84819837614583Q763.0986712489157 421.20459040789194 761.8219600288642 428.7290373856427Q760.5452488088125 436.25348436339345 760.5452488088125 443.0988296283508L760.5452488088125 443.0988296283508Q760.5452488088125 459.91338803711517 765.1631404558076 467.1661943297486Q769.7538680342909 474.39183655387023 778.3648777525111 474.39183655387023ZM837.6097111766064 390.2918804415369L857.167840505056 390.2918804415369L857.167840505056 406.7261418911369Q859.531114465577 403.19481298461125 861.7585680835393 400.07094510576167Q864.0131857700134 396.9470772269121 866.7567566896987 394.58380326639104Q869.5003276093839 392.2476933743818 872.8143439678157 390.7808336747481Q876.1555243947591 389.3139739751144 880.2572987400313 389.3139739751144L880.2572987400313 389.3139739751144Q886.9124955254065 389.3139739751144 890.036363404256 392.73664660759306Q893.1602312831056 396.15931924007174 893.1602312831056 401.04885157218416L893.1602312831056 401.04885157218416Q893.1602312831056 403.9825709714516 892.1823248166831 405.93838390429653Q891.2044183502607 407.8941968371415 889.8462149246739 409.06225178314617Q888.4608474305754 410.23030672915075 886.9124955254065 410.719259962362Q885.3369795517258 411.20821319557325 884.1689246057213 411.20821319557325L884.1689246057213 411.20821319557325Q882.4032601524584 411.20821319557325 881.316697411989 410.44761927724466Q880.2572987400313 409.6598612904043 879.1707359995619 408.76344702951707Q878.1113373276041 407.8941968371415 876.7259698335056 407.1064388503012Q875.3677664079189 406.3186808634608 873.2218049954918 406.3186808634608L873.2218049954918 406.3186808634608Q868.7125696225437 406.3186808634608 864.6107952772716 409.46971281082216Q860.5090209319994 412.59358068967174 857.167840505056 416.0977455276857L857.167840505056 416.0977455276857L857.167840505056 488.08252708378495L837.6097111766064 488.08252708378495L837.6097111766064 390.2918804415369ZM964.5474033319467 414.7395421020989L964.5474033319467 414.7395421020989Q964.5474033319467 428.4302326320136 953.3014789680883 437.61168778898025Q942.0555546042297 446.8203070144586 922.1171283166159 448.9662684268857L922.1171283166159 448.9662684268857Q922.8777222349444 456.7895201582656 924.9421914418363 461.67905249037796Q927.0066606487283 466.5685848224904 929.9403800479956 469.39364794771086Q932.874099447263 472.2458751414431 936.6770690389061 473.3052738134008Q940.4800386305491 474.39183655387023 944.6089770443328 474.39183655387023L944.6089770443328 474.39183655387023Q953.9805806808816 474.39183655387023 962.2112934399374 469.50230422175775Q970.4148421304817 464.6127718896454 975.4945229421762 453.0680427721578L975.4945229421762 453.0680427721578L981.7694227683871 453.0680427721578Q979.216000328284 460.3208490647912 974.7067649553359 466.8673895761195Q970.2246936508996 473.41393008744774 964.1671063727824 478.4121186936071Q958.0823550261537 483.38314323125473 951.0468612816142 486.3168626305221Q944.0113675370746 489.2505820297896 936.5684127648591 489.2505820297896L936.5684127648591 489.2505820297896Q929.7230674999018 489.2505820297896 923.3666754681556 486.9144721377803Q917.0102834364095 484.5511981772593 912.1207511042971 479.1727126119357Q907.2312187721848 473.79422704661204 904.216007167382 465.2103813969036Q901.1736314940676 456.5993716786834 901.1736314940676 444.0767360947733L901.1736314940676 444.0767360947733Q901.1736314940676 435.87318740422916 903.0479522213775 426.2842712195865Q904.8951088801755 416.6953550349439 909.2956879790765 408.4918063443997Q913.6962670779777 400.2610935853438 920.8404170965642 394.80111581448494Q927.9845671151506 389.3139739751144 938.5242256977041 389.3139739751144L938.5242256977041 389.3139739751144Q943.4137580298166 389.3139739751144 948.0316496768115 390.4005367155838Q952.6223772552949 391.45993538754146 956.3438546414027 394.3121625812737Q960.0381679589987 397.13722570649423 962.2927856454727 402.0267580386066Q964.5474033319467 406.916290370719 964.5474033319467 414.7395421020989ZM921.8998157685219 441.333165175088L921.8998157685219 441.333165175088Q935.8078188465305 439.1872037626609 943.9027112630276 431.55410051086324Q952.0247677480367 423.92099725906553 952.0247677480367 412.7837291692539L952.0247677480367 412.7837291692539Q952.0247677480367 405.3407743970384 949.4985093764453 402.13541431265355Q946.9450869363421 398.902890159757 942.2457030838118 398.902890159757L942.2457030838118 398.902890159757Q937.1660222721173 398.902890159757 933.3630526804743 402.81451602544695Q929.5329190203196 406.7261418911369 927.0066606487283 412.89238544330084Q924.4532382086251 419.0314649269531 923.1765269885734 426.5830759732156Q921.8998157685219 434.1075229509663 921.8998157685219 441.333165175088ZM1036.532184888046 414.7395421020989L1036.532184888046 414.7395421020989Q1036.532184888046 428.4302326320136 1025.2862605241876 437.61168778898025Q1014.0403361603289 446.8203070144586 994.0747458042033 448.9662684268857L994.0747458042033 448.9662684268857Q994.8625037910437 456.7895201582656 996.9269729979355 461.67905249037796Q998.9642781363158 466.5685848224904 1001.8979975355832 469.39364794771086Q1004.8317169348506 472.2458751414431 1008.6618505950054 473.3052738134008Q1012.4648201866484 474.39183655387023 1016.5665945319204 474.39183655387023L1016.5665945319204 474.39183655387023Q1025.965362236981 474.39183655387023 1034.168910927525 469.50230422175775Q1042.399623686581 464.6127718896454 1047.4793044982755 453.0680427721578L1047.4793044982755 453.0680427721578L1053.7270402559748 453.0680427721578Q1051.200781884383 460.3208490647912 1046.6915465114353 466.8673895761195Q1042.182311138487 473.41393008744774 1036.12472386037 478.4121186936071Q1030.067136582253 483.38314323125473 1023.0316428377134 486.3168626305221Q1015.9961490931739 489.2505820297896 1008.5531943209585 489.2505820297896L1008.5531943209585 489.2505820297896Q1001.7078490560011 489.2505820297896 995.3514570242548 486.9144721377803Q988.9950649925088 484.5511981772593 984.1055326603964 479.1727126119357Q979.216000328284 473.79422704661204 976.1736246549697 465.2103813969036Q973.1584130501669 456.5993716786834 973.1584130501669 444.0767360947733L973.1584130501669 444.0767360947733Q973.1584130501669 435.87318740422916 975.0055697089649 426.2842712195865Q976.8798904362748 416.6953550349439 981.2804695351759 408.4918063443997Q985.681048634077 400.2610935853438 992.7980345841518 394.80111581448494Q999.9421846027383 389.3139739751144 1010.5090072538035 389.3139739751144L1010.5090072538035 389.3139739751144Q1015.3985395859158 389.3139739751144 1019.989267164399 390.4005367155838Q1024.5799947428823 391.45993538754146 1028.30147212899 394.3121625812737Q1032.022949515098 397.13722570649423 1034.277567201572 402.0267580386066Q1036.532184888046 406.916290370719 1036.532184888046 414.7395421020989ZM993.8845973246212 441.333165175088L993.8845973246212 441.333165175088Q1007.765436334118 439.1872037626609 1015.887492819127 431.55410051086324Q1024.0095493041358 423.92099725906553 1024.0095493041358 412.7837291692539L1024.0095493041358 412.7837291692539Q1024.0095493041358 405.3407743970384 1021.4561268640329 402.13541431265355Q1018.9298684924414 398.902890159757 1014.2304846399111 398.902890159757L1014.2304846399111 398.902890159757Q1009.1508038282166 398.902890159757 1005.320670168062 402.81451602544695Q1001.517700576419 406.7261418911369 998.9642781363158 412.89238544330084Q996.4380197647243 419.0314649269531 995.1613085446727 426.5830759732156Q993.8845973246212 434.1075229509663 993.8845973246212 441.333165175088ZM1047.2891560186933 390.2918804415369L1066.847285347143 390.2918804415369L1066.847285347143 406.7261418911369Q1069.1833952391523 403.19481298461125 1071.4380129256263 400.07094510576167Q1073.6926306121004 396.9470772269121 1076.4090374632738 394.58380326639104Q1079.1526083829592 392.2476933743818 1082.4937888099028 390.7808336747481Q1085.8078051683344 389.3139739751144 1089.9095795136063 389.3139739751144L1089.9095795136063 389.3139739751144Q1096.5647762989815 389.3139739751144 1099.6886441778313 392.73664660759306Q1102.8125120566808 396.15931924007174 1102.8125120566808 401.04885157218416L1102.8125120566808 401.04885157218416Q1102.8125120566808 403.9825709714516 1101.8346055902584 405.93838390429653Q1100.8566991238358 407.8941968371415 1099.4984956982491 409.06225178314617Q1098.1402922726625 410.23030672915075 1096.5647762989815 410.719259962362Q1094.989260325301 411.20821319557325 1093.8212053792963 411.20821319557325L1093.8212053792963 411.20821319557325Q1092.0555409260337 411.20821319557325 1090.996142254076 410.44761927724466Q1089.9095795136063 409.6598612904043 1088.8501808416488 408.76344702951707Q1087.7636181011794 407.8941968371415 1086.4054146755925 407.1064388503012Q1085.020047181494 406.3186808634608 1082.8740857690668 406.3186808634608L1082.8740857690668 406.3186808634608Q1078.3648503961188 406.3186808634608 1074.2630760508468 409.46971281082216Q1070.1613017055747 412.59358068967174 1066.847285347143 416.0977455276857L1066.847285347143 416.0977455276857L1066.847285347143 488.08252708378495L1047.2891560186933 488.08252708378495L1047.2891560186933 390.2918804415369ZM1123.9461573588112 388.7163644678562L1123.9461573588112 388.7163644678562Q1123.9461573588112 394.0133578276446 1124.8154075511866 397.9249836933346Q1125.711821812074 401.83660955902445 1126.8798767580788 404.47152420466284Q1128.047931704083 407.1064388503012 1129.1344944445527 408.68195482398187Q1130.1938931165105 410.23030672915075 1130.7915026237686 411.20821319557325L1130.7915026237686 411.20821319557325Q1119.844383013539 411.20821319557325 1113.5694831873282 405.6395791506675Q1107.3217474296289 400.07094510576167 1107.3217474296289 388.52621598827403L1107.3217474296289 388.52621598827403Q1107.3217474296289 378.74715132404924 1112.3199360357885 370.13614160582904Q1117.290960573436 361.55229595612064 1125.7933140176092 355.1959039243745Q1134.322831530294 348.83951189262837 1145.7589043737348 345.1180345065206Q1157.1949772171756 341.3965571204128 1170.0979097602499 341.3965571204128L1170.0979097602499 341.3965571204128Q1181.6426388777377 341.3965571204128 1190.1449923219106 344.2216202456333Q1198.647345766084 347.0738474393656 1204.2431438795015 351.96337977147795Q1209.8117779244074 356.8529121035903 1212.5553488440926 363.10064786128953Q1215.2717556952662 369.37554768750044 1215.2717556952662 376.00358040436396L1215.2717556952662 376.00358040436396Q1215.2717556952662 383.44653517657946 1211.3601298295762 390.7808336747481Q1207.4485039638864 398.11513217291673 1200.0327132601824 403.19481298461125L1200.0327132601824 403.19481298461125Q1215.081607215684 404.7703289582919 1224.1815701671153 415.1198390612632Q1233.281533118547 425.49651323274617 1233.281533118547 444.0767360947733L1233.281533118547 444.0767360947733Q1233.281533118547 450.32447185247247 1231.8961656244483 458.4465283374814Q1230.5379621988616 466.5685848224904 1226.9251410868007 473.902883320659Q1223.3123199747401 481.2371818188276 1216.8472716689469 486.3168626305221Q1210.3822233631538 491.3965434422167 1200.4130102193467 491.3965434422167L1200.4130102193467 491.3965434422167Q1196.1210873944926 491.3965434422167 1192.2094615288026 490.337144770259Q1188.297835663113 489.2505820297896 1185.2554599897985 487.2132768914094Q1182.2402483849958 485.14880768451746 1180.474583931733 481.91628353162093Q1178.70891947847 478.6837593787244 1178.70891947847 474.5819850334524L1178.70891947847 474.5819850334524Q1178.70891947847 473.41393008744774 1178.8990679580522 471.34946088055585Q1179.0892164376344 469.31215574217566 1179.4966774653103 467.9267882480772L1179.4966774653103 467.9267882480772Q1182.2402483849958 472.2458751414431 1186.3420227302677 473.902883320659Q1190.4437970755398 475.5598914998749 1193.9751259820655 475.5598914998749L1193.9751259820655 475.5598914998749Q1198.864658314178 475.5598914998749 1202.0700183985628 472.81632058018954Q1205.3025425514593 470.09991372901595 1207.068207004722 465.78082683565003Q1208.833871457985 461.4889040107958 1209.5129731707782 456.30056692505434Q1210.1920748835716 451.1122298393128 1210.1920748835716 446.03254902761824L1210.1920748835716 446.03254902761824Q1210.1920748835716 427.4523261655911 1203.0479248649851 419.24877747504695Q1195.9309389149105 411.0180647159911 1183.2181548514181 411.0180647159911L1183.2181548514181 411.0180647159911Q1180.8548808908972 411.0180647159911 1177.3507160528834 411.20821319557325Q1173.8193871463577 411.42552574366715 1170.505370787926 411.80582270283145L1170.505370787926 411.80582270283145L1170.505370787926 488.08252708378495L1149.3717254857957 488.08252708378495L1149.3717254857957 362.72035090212523L1170.505370787926 359.7866315028578L1170.505370787926 403.9825709714516L1173.2217776390994 403.9825709714516Q1178.70891947847 403.9825709714516 1183.4897955365354 401.3476563258132Q1188.297835663113 398.7127416801749 1191.8020005011267 394.3936547868089Q1195.3333294076524 390.1017319619547 1197.2891423404972 384.9133948762132Q1199.2449552733422 379.72505779047174 1199.2449552733422 374.64537697877716L1199.2449552733422 374.64537697877716Q1199.2449552733422 363.10064786128953 1191.4217035419624 355.7663493631209Q1183.5984518105824 348.4320508649523 1168.142096827405 348.4320508649523L1168.142096827405 348.4320508649523Q1159.7483996572787 348.4320508649523 1151.707835377805 350.87681703100856Q1143.694435166843 353.32158319706474 1137.528191614679 358.31977180322406Q1131.3891121310266 363.2907963408717 1127.6676347449188 370.9238995926694Q1123.9461573588112 378.5570028444671 1123.9461573588112 388.7163644678562ZM1244.2286527287763 353.91919270432294L1263.7867820572258 351.1756217846376L1263.7867820572258 456.7895201582656Q1263.7867820572258 458.7453330911105 1263.9769305368081 461.67905249037796Q1264.1670790163903 464.6127718896454 1265.0634932772775 467.4378350148659Q1265.9327434696531 470.2900622085981 1267.6984079229157 472.32736734697835Q1269.4640723761788 474.39183655387023 1272.5879402550283 474.39183655387023L1272.5879402550283 474.39183655387023Q1282.176856439671 474.39183655387023 1286.6589277441074 453.0680427721578L1286.6589277441074 453.0680427721578L1293.9117340367407 453.0680427721578Q1291.7657726243135 465.40052987648573 1288.42459219737 472.5446798950722Q1285.1105758389383 479.6616658451469 1281.3890984528305 483.38314323125473Q1277.6676210667229 487.10462061736246 1273.7559952010329 488.1911833578319Q1269.8443693353431 489.2505820297896 1266.7205014564934 489.2505820297896L1266.7205014564934 489.2505820297896Q1259.875156191536 489.2505820297896 1255.583233366682 486.61566738415127Q1251.2641464733158 483.9807527385129 1248.7378881017244 479.8789783932408Q1246.1844656616213 475.75003997945703 1245.2065591951987 470.67035916776246Q1244.2286527287763 465.5906783560679 1244.2286527287763 460.89129450353767L1244.2286527287763 460.89129450353767L1244.2286527287763 353.91919270432294ZM1322.0808730834106 389.3139739751144L1322.0808730834106 389.3139739751144Q1329.6868122666963 389.3139739751144 1335.173954106067 391.6500838671236Q1340.6610959454376 394.0133578276446 1344.1652607834515 398.2237884469637Q1347.6965896899771 402.4070549977709 1349.7338948283573 408.08434531672367Q1351.7983640352493 413.7616356356764 1352.7762705016717 420.22668394146945L1352.7762705016717 420.22668394146945L1353.9443254476764 420.22668394146945Q1362.1750382067323 420.22668394146945 1369.0203834716897 416.885503514526Q1375.865728736647 413.57148715609424 1380.7552610687594 408.4918063443997L1380.7552610687594 408.4918063443997L1383.6889804680268 413.7616356356764Q1379.777354602337 420.0093713933756 1371.247837089652 424.1383098071594Q1362.7454836454788 428.24008415243145 1353.7541769680943 429.7884360576004L1353.7541769680943 429.7884360576004Q1353.7541769680943 431.7442489904454 1353.862833242141 433.7000619232903Q1353.9443254476764 435.65587485613526 1353.9443254476764 437.82900033707415L1353.9443254476764 437.82900033707415Q1353.9443254476764 461.8692009699601 1345.143167249874 475.5598914998749Q1336.3420090520717 489.2505820297896 1320.5053571097299 489.2505820297896L1320.5053571097299 489.2505820297896Q1314.0403088039368 489.2505820297896 1307.4937682926086 486.9144721377803Q1300.9472277812802 484.5511981772593 1295.6773984900035 479.09122040640045Q1290.3804051302152 473.6040785670299 1287.1478809773187 464.9930688488097Q1283.9425208929335 456.4092231991013 1283.9425208929335 443.696439135609L1283.9425208929335 443.696439135609Q1283.9425208929335 435.0854294173888 1285.7896775517318 425.49651323274617Q1287.6368342105297 415.9075970481035 1292.0374133094308 407.8941968371415Q1296.437992408332 399.8807966261795 1303.7722909065008 394.58380326639104Q1311.1065894046694 389.3139739751144 1322.0808730834106 389.3139739751144ZM1324.0366860162555 474.39183655387023L1324.0366860162555 474.39183655387023Q1334.3861961192267 474.39183655387023 1339.2757284513389 464.1238186564342Q1344.1652607834515 453.8558007589981 1344.1652607834515 435.0854294173888L1344.1652607834515 435.0854294173888Q1344.1652607834515 433.91737447138416 1344.1652607834515 432.7221554568679Q1344.1652607834515 431.55410051086324 1343.9751123038693 430.3860455648586L1343.9751123038693 430.3860455648586Q1338.2978219849167 430.0057486056943 1335.8530558188604 427.8326231247554Q1333.4082896528041 425.6866617123283 1333.4082896528041 420.60698090063374L1333.4082896528041 420.60698090063374Q1333.4082896528041 416.0977455276857 1335.3641025856493 414.25058886888763Q1337.319915518494 412.4034322100896 1341.231541384184 412.18611966199575L1341.231541384184 412.18611966199575Q1338.8954314921748 405.3407743970384 1335.282610380114 402.7058597514Q1331.6426251995413 400.07094510576167 1327.160553895105 400.07094510576167L1327.160553895105 400.07094510576167Q1321.1029666169882 400.07094510576167 1316.892535997669 404.09122724549854Q1312.68210537835 408.08434531672367 1310.0471907327117 414.3592451429346Q1307.4122760870732 420.60698090063374 1306.2170570725568 428.1314278783845Q1305.049002126552 435.65587485613526 1305.049002126552 442.90868114876866L1305.049002126552 442.90868114876866Q1305.049002126552 452.49759733341136 1306.8146665798151 458.5551846115284Q1308.5803310330778 464.6127718896454 1311.3239019527632 468.144100796171Q1314.0403088039368 471.6482656341849 1317.3814892308803 473.03363312828344Q1320.695505589312 474.39183655387023 1324.0366860162555 474.39183655387023ZM1404.007703714805 389.3139739751144L1404.007703714805 389.3139739751144Q1411.640806966603 389.3139739751144 1417.1279488059733 391.6500838671236Q1422.5879265768322 394.0133578276446 1426.1192554833576 398.2237884469637Q1429.6505843898835 402.4070549977709 1431.6878895282637 408.08434531672367Q1433.7523587351554 413.7616356356764 1434.730265201578 420.22668394146945L1434.730265201578 420.22668394146945L1435.8983201475824 420.22668394146945Q1444.1018688381266 420.22668394146945 1450.947214103084 416.885503514526Q1457.7925593680413 413.57148715609424 1462.6820917001537 408.4918063443997L1462.6820917001537 408.4918063443997L1465.6158110994213 413.7616356356764Q1461.7041852337313 420.0093713933756 1453.2018317895581 424.1383098071594Q1444.699478345385 428.24008415243145 1435.7081716680002 429.7884360576004L1435.7081716680002 429.7884360576004Q1435.7081716680002 431.7442489904454 1435.7896638735358 433.7000619232903Q1435.8983201475824 435.65587485613526 1435.8983201475824 437.82900033707415L1435.8983201475824 437.82900033707415Q1435.8983201475824 461.8692009699601 1427.0971619497802 475.5598914998749Q1418.2960037519779 489.2505820297896 1402.459351809636 489.2505820297896L1402.459351809636 489.2505820297896Q1395.994303503843 489.2505820297896 1389.4477629925148 486.9144721377803Q1382.9012224811866 484.5511981772593 1377.604229121398 479.09122040640045Q1372.3343998301214 473.6040785670299 1369.1018756772248 464.9930688488097Q1365.8693515243283 456.4092231991013 1365.8693515243283 443.696439135609L1365.8693515243283 443.696439135609Q1365.8693515243283 435.0854294173888 1367.743672251638 425.49651323274617Q1369.5908289104361 415.9075970481035 1373.9914080093372 407.8941968371415Q1378.3919871082383 399.8807966261795 1385.726285606407 394.58380326639104Q1393.0605841045756 389.3139739751144 1404.007703714805 389.3139739751144ZM1405.9635166476498 474.39183655387023L1405.9635166476498 474.39183655387023Q1416.3401908191329 474.39183655387023 1421.2297231512455 464.1238186564342Q1426.1192554833576 453.8558007589981 1426.1192554833576 435.0854294173888L1426.1192554833576 435.0854294173888Q1426.1192554833576 433.91737447138416 1426.1192554833576 432.7221554568679Q1426.1192554833576 431.55410051086324 1425.9291070037755 430.3860455648586L1425.9291070037755 430.3860455648586Q1420.2518166848229 430.0057486056943 1417.8070505187668 427.8326231247554Q1415.3622843527103 425.6866617123283 1415.3622843527103 420.60698090063374L1415.3622843527103 420.60698090063374Q1415.3622843527103 416.0977455276857 1417.3180972855555 414.25058886888763Q1419.2739102184005 412.4034322100896 1423.1855360840905 412.18611966199575L1423.1855360840905 412.18611966199575Q1420.8494261920812 405.3407743970384 1417.2094410115085 402.7058597514Q1413.5966198994477 400.07094510576167 1409.1145485950115 400.07094510576167L1409.1145485950115 400.07094510576167Q1403.0297972483825 400.07094510576167 1398.8465306975752 404.09122724549854Q1394.636100078256 408.08434531672367 1392.0011854326178 414.3592451429346Q1389.3391067184677 420.60698090063374 1388.171051772463 428.1314278783845Q1387.0029968264585 435.65587485613526 1387.0029968264585 442.90868114876866L1387.0029968264585 442.90868114876866Q1387.0029968264585 452.49759733341136 1388.7686612797213 458.5551846115284Q1390.5343257329841 464.6127718896454 1393.2507325841577 468.144100796171Q1395.994303503843 471.6482656341849 1399.3354839307865 473.03363312828344Q1402.6495002892182 474.39183655387023 1405.9635166476498 474.39183655387023ZM1450.1866201847554 390.2918804415369L1469.744749513205 390.2918804415369L1469.744749513205 403.79242249186944Q1474.8244303248996 394.3936547868089 1480.5017206438522 391.8673964152175Q1486.1518468942934 389.3139739751144 1491.2586917744995 389.3139739751144L1491.2586917744995 389.3139739751144Q1496.3383725861943 389.3139739751144 1500.1413421778373 390.6721774007012Q1503.9714758379919 392.05754489479966 1506.6878826891655 394.3936547868089Q1509.4314536088507 396.75692874732994 1511.3057743361608 399.8807966261795Q1513.1529309949585 403.0046645050291 1514.3209859409633 406.7261418911369L1514.3209859409633 406.7261418911369Q1517.0645568606485 400.858703092602 1519.9982762599159 397.43603046012333Q1522.9319956591833 394.0133578276446 1525.8657150584506 392.13903710033486Q1528.7994344577185 390.2918804415369 1531.6244975829386 389.8029272083256Q1534.476724776671 389.3139739751144 1536.8128346686804 389.3139739751144L1536.8128346686804 389.3139739751144Q1545.6139928664827 389.3139739751144 1550.9924784318061 392.6279903335461Q1556.3709639971298 395.9691707604896 1559.1145349168153 401.15750784623106Q1561.8581058365005 406.3186808634608 1562.727356028876 412.48492441562485Q1563.6237702897633 418.6511679677888 1563.6237702897633 424.3284582867415L1563.6237702897633 424.3284582867415Q1563.6237702897633 427.8326231247554 1563.406457741669 432.0430537440744Q1563.2163092620874 436.25348436339345 1563.026160782505 440.65406346229463Q1562.8360123029229 445.0546425611958 1562.6458638233407 449.455221660097Q1562.428551275247 453.8558007589981 1562.428551275247 457.5772781451059L1562.428551275247 457.5772781451059Q1562.428551275247 459.1256300502748 1562.6458638233407 461.97785724400705Q1562.8360123029229 464.80292036922754 1563.6237702897633 467.5464912889129Q1564.3843642080917 470.2900622085981 1566.1500286613548 472.32736734697835Q1567.9156931146174 474.39183655387023 1571.2297094730493 474.39183655387023L1571.2297094730493 474.39183655387023Q1575.7389448459974 474.39183655387023 1579.3517659580582 469.31215574217566Q1582.964587070119 464.2324749304811 1585.32786103064 453.0680427721578L1585.32786103064 453.0680427721578L1592.5535032547616 453.0680427721578Q1590.4075418423347 465.40052987648573 1587.0935254839028 472.5446798950722Q1583.7523450569595 479.6616658451469 1580.0308676708514 483.38314323125473Q1576.3365543532557 487.10462061736246 1572.6150769671478 488.1911833578319Q1568.89359958104 489.2505820297896 1565.7697317021903 489.2505820297896L1565.7697317021903 489.2505820297896Q1559.4948318759793 489.2505820297896 1555.2029090511253 486.8058158637334Q1550.910986226271 484.3610496976772 1548.1674153065858 480.2592753524051Q1545.4238443869006 476.157501007133 1544.1471331668488 470.67035916776246Q1542.8704219467973 465.2103813969036 1542.8704219467973 459.3429425983687L1542.8704219467973 459.3429425983687Q1542.8704219467973 457.5772781451059 1542.9790782208443 452.7692380185287Q1543.0877344948913 447.98836196046324 1543.1692267004262 442.5012201210926Q1543.2778829744732 437.0412423502338 1543.3593751800083 432.1517100181214Q1543.4680314540553 427.26217768600895 1543.4680314540553 425.306364753164L1543.4680314540553 425.306364753164Q1543.4680314540553 419.0314649269531 1542.490124987633 414.92969058168103Q1541.5122185212106 410.82791623640895 1539.7465540679475 408.4918063443997Q1537.9808896146849 406.1285323838787 1535.7534359967228 405.15062591745624Q1533.4988183102485 404.17271945103374 1530.9453958701454 404.17271945103374L1530.9453958701454 404.17271945103374Q1524.8878085920285 404.17271945103374 1521.0848390003853 409.06225178314617Q1517.2547053402307 413.95178411525853 1515.7063534350616 425.49651323274617L1515.7063534350616 425.49651323274617L1515.7063534350616 488.08252708378495L1496.1482241066121 488.08252708378495L1496.1482241066121 422.7529423130609Q1496.1482241066121 419.24877747504695 1495.849419352983 415.9075970481035Q1495.5506145993538 412.59358068967174 1494.3825596533493 409.9586660440334Q1493.2145047073445 407.2965873298833 1491.0413792264058 405.7482354247144Q1488.8954178139786 404.17271945103374 1485.1739404278708 404.17271945103374L1485.1739404278708 404.17271945103374Q1478.9262046701717 404.17271945103374 1475.6936805172752 409.3610565367752Q1472.4611563643787 414.54939362251673 1469.744749513205 425.49651323274617L1469.744749513205 425.49651323274617L1469.744749513205 488.08252708378495L1450.1866201847554 488.08252708378495L1450.1866201847554 390.2918804415369Z " fill="#dea2ac" transform="matrix(0.5494320567353137,0,0,0.5494320567353136,0,71.21839266624438)"/></g></svg>