<svg xmlns="http://www.w3.org/2000/svg" version="1.1" xmlns:xlink="http://www.w3.org/1999/xlink" xmlns:svgjs="http://svgjs.dev/svgjs" width="100%" height="100%" viewBox="0 0 1000 600"><rect width="1000" height="600" x="0" y="0" fill="#ffffff"/><g><rect width="333.3333333333333" height="333.3333333333333" rx="13.333333333333334" ry="13.333333333333334" y="284.30458503071645" fill="#dea2ac" transform="matrix(0.47694922307900584,0,0,0.47694922307900584,0,84.9095941691884)" x="262.08221435546875"/><path d="M374.6096105595958 525.9712278618827Q353.74888923551043 525.9712278618827 339.32818380024906 516.0801029800045Q324.90747836498764 506.2197915712789 317.697125647357 489.24156786437925Q310.48677292972627 472.26334415747965 310.48677292972627 451.1869285213284L310.48677292972627 451.1869285213284Q310.48677292972627 429.6791242610454 317.697125647357 412.70090055414573Q324.90747836498764 395.72267684724613 339.4514376928581 385.8623654385204Q353.99539702072855 375.9712405566424 375.2875069689457 375.9712405566424L375.2875069689457 375.9712405566424Q388.3832330586596 375.9712405566424 398.58249267206025 379.76129775437136Q408.7817522854609 383.520541478948 414.54387176493503 390.1762516798379Q420.30599124440914 396.83196188072776 420.30599124440914 405.490547836515L420.30599124440914 405.490547836515Q420.30599124440914 415.68980744991575 414.32817745286917 422.2530772313488Q408.3503636613292 428.7855335396296 399.2295756082579 428.7855335396296L399.2295756082579 428.7855335396296Q394.5767411622654 428.7855335396296 394.5767411622654 426.35126916060045L394.5767411622654 426.35126916060045Q394.5767411622654 425.8890670633164 396.36392260509695 423.1158544796123Q398.1202905747762 420.3426418959082 399.476083393476 416.70665206394057Q400.80106273902356 413.0398487588207 400.80106273902356 408.1405065276101L400.80106273902356 408.1405065276101Q400.80106273902356 398.83483763562515 393.8064043334588 392.94946426354204Q386.8117459278939 387.0640908914588 375.2875069689457 387.0640908914588L375.2875069689457 387.0640908914588Q360.4045994364003 387.0640908914588 350.97567665180634 396.400573256596Q341.5467538672124 405.70624214858094 337.35612151850387 420.2502014764514Q333.13467569664317 434.7633473311696 333.13467569664317 451.1869285213284L333.13467569664317 451.1869285213284Q333.13467569664317 467.8262040235531 338.46540655198555 481.8155208346827Q343.7653239341756 495.77402417266006 353.6564488160536 503.87796761170654Q363.5167602247794 511.981911050753 376.39679200242733 511.981911050753L376.39679200242733 511.981911050753Q389.2460103069231 511.981911050753 398.92144087673523 507.2058227121515Q408.56605797339506 502.42973437354993 414.32817745286917 494.0176562029808L414.32817745286917 494.0176562029808Q415.00607386221907 493.124065481565 415.6531567984167 493.124065481565L415.6531567984167 493.124065481565Q417.6560325533141 493.124065481565 419.8746026202774 495.00368734385336Q422.09317268724067 496.8833092061417 422.09317268724067 498.88618496103913L422.09317268724067 498.88618496103913Q422.09317268724067 499.56408137038903 421.66178406310894 500.4576720918048L421.66178406310894 500.4576720918048Q403.9132235274026 525.9712278618827 374.6096105595958 525.9712278618827L374.6096105595958 525.9712278618827ZM438.94814250153127 523.0747613855694L436.29818381043617 516.2033568726138L441.1667125684945 515.0940718391321Q448.71601349080015 512.6598074601029 451.27353176243844 509.0854445744398Q453.8310500340766 505.541895161929 453.8310500340766 496.45192058200996L453.8310500340766 496.45192058200996L453.8310500340766 397.0476561927936Q453.8310500340766 394.39769750169864 452.81420542005185 393.411666360826Q451.8281742791792 392.3948217468012 449.6096042122159 392.3948217468012L449.6096042122159 392.3948217468012L437.8388574680496 392.3948217468012L435.40459308902047 384.84552082449557Q444.0631790448077 381.51766572405063 458.26819016800323 378.7444531403465Q472.4423878180465 375.9712405566424 485.32241959569444 375.9712405566424L485.32241959569444 375.9712405566424Q513.0545454327356 375.9712405566424 526.3659658345154 386.971650472002Q539.6773862362951 397.9412469142094 539.6773862362951 415.4741131378498L539.6773862362951 415.4741131378498Q539.6773862362951 426.7826577847322 534.4699092735618 435.9958862572603Q529.2624323108284 445.2091147297884 518.6009706001438 450.07764348784673L518.6009706001438 450.07764348784673Q531.9123910019235 454.51478362177335 539.4616919242292 463.5123177822355Q547.0109928465349 472.4790384695455 547.0109928465349 483.3561944922961L547.0109928465349 483.3561944922961Q547.0109928465349 501.78265143735234 534.6856035856276 512.4132996748847Q522.3602143247206 523.0747613855694 495.09029058496344 523.0747613855694L495.09029058496344 523.0747613855694L438.94814250153127 523.0747613855694ZM496.199575618445 512.6598074601029Q510.1580789564224 512.6598074601029 518.1695819760121 504.3401697089906Q526.1502715224495 496.0205319578782 526.1502715224495 482.4626037708803L526.1502715224495 482.4626037708803Q526.1502715224495 470.72267049986624 517.6149394592712 462.61872706081977Q509.0487939229408 454.51478362177335 494.6280884876794 454.51478362177335L494.6280884876794 454.51478362177335Q486.86309325330785 454.51478362177335 481.10097377383374 452.0805192427442L481.10097377383374 452.0805192427442Q478.23532077067284 450.53984558513076 478.23532077067284 447.4276847967517L478.23532077067284 447.4276847967517Q478.23532077067284 444.09982969630676 480.8852794617679 444.09982969630676L480.8852794617679 444.09982969630676Q481.9945644952495 444.09982969630676 484.6445231863446 444.53121832043854Q487.3252953505919 444.9934204177225 491.08453907516855 444.9934204177225L491.08453907516855 444.9934204177225Q504.6116537890142 444.9934204177225 512.284208603929 437.1051712907419Q519.9259499456914 429.21692216376135 519.9259499456914 415.9055017619816L519.9259499456914 415.9055017619816Q519.9259499456914 403.05628345748585 511.39061788251314 395.0755939110485Q502.8552858193349 387.0640908914588 487.54098966265775 387.0640908914588L487.54098966265775 387.0640908914588Q474.01387494881214 387.0640908914588 474.01387494881214 396.6162675686619L474.01387494881214 396.6162675686619L474.01387494881214 486.2526609686093Q474.01387494881214 502.89193647083397 480.54633125709296 507.7604652288923Q487.10960103852597 512.6598074601029 496.199575618445 512.6598074601029L496.199575618445 512.6598074601029Z " fill="#f4efea" transform="matrix(0.47694922307900584,0,0,0.47694922307900584,0,84.9095941691884)"/><path d="M738.7892712142745 525.9712435996198Q719.2566694213301 525.9712435996198 705.7540732040511 516.7098474762297Q692.251476986772 507.47730305415854 685.5001788781324 491.58001562740475Q678.7488807694929 475.68272820065096 678.7488807694929 455.9481644984738L678.7488807694929 455.9481644984738Q678.7488807694929 435.809676977831 685.5001788781324 419.9123895510772Q692.251476986772 404.0151021243234 705.8694800093269 394.7825577022522Q719.487483031882 385.521161578862 739.4240086432919 385.521161578862L739.4240086432919 385.521161578862Q751.6859817038552 385.521161578862 761.2358948404351 389.06992084109567Q770.785807977015 392.5898284020103 776.1810761236628 398.8217958869083Q781.5763442703106 405.0537633718064 781.5763442703106 413.1610914424376L781.5763442703106 413.1610914424376Q781.5763442703106 422.7110045790175 775.9791142144301 428.85641695995866Q770.3818841585494 434.9729776395808 761.8417805681336 434.9729776395808L761.8417805681336 434.9729776395808Q757.4851736689686 434.9729776395808 757.4851736689686 432.693693235382L757.4851736689686 432.693693235382Q757.4851736689686 432.2609177155974 759.1585723454691 429.6642645968899Q760.8031193206505 427.06761147818236 762.0725941786853 423.6631107225436Q763.3132173354011 420.2297582655859 763.3132173354011 415.6423377558693L763.3132173354011 415.6423377558693Q763.3132173354011 406.92912395753956 756.7638811359943 401.41844900561586Q750.2145449365876 395.90777405369215 739.4240086432919 395.90777405369215L739.4240086432919 395.90777405369215Q725.4886369062283 395.90777405369215 716.6600163026227 404.64983955334077Q707.8313956990171 413.36305335167043 703.9075643196368 426.98105637422543Q699.9548812389376 440.5702076954615 699.9548812389376 455.9481644984738L699.9548812389376 455.9481644984738Q699.9548812389376 471.5280832107189 704.9462255671199 484.6267556095324Q709.9087181939831 497.6965763070269 719.1701143173733 505.2845737539166Q728.4026587394444 512.8725712008063 740.4626698907749 512.8725712008063L740.4626698907749 512.8725712008063Q752.4938293407864 512.8725712008063 761.5532635549438 508.4005574963657Q770.5838460677821 503.92854379192494 775.9791142144301 496.05202933184546L775.9791142144301 496.05202933184546Q776.6138516434474 495.2153299935953 777.2197373711458 495.2153299935953L777.2197373711458 495.2153299935953Q779.095097956879 495.2153299935953 781.172420451845 496.97528377405257Q783.2497429468111 498.7352375545099 783.2497429468111 500.6105981402431L783.2497429468111 500.6105981402431Q783.2497429468111 501.2453355692605 782.8458191283455 502.0820349075107L782.8458191283455 502.0820349075107Q766.2272391686173 525.9712435996198 738.7892712142745 525.9712435996198L738.7892712142745 525.9712435996198ZM830.6242365125638 525.9712435996198Q821.4782471944496 525.9712435996198 813.688287838327 520.6625305569289Q805.8983284822044 515.353817514238 801.2243528685309 505.08261184468387Q796.5503772548574 494.81140617512966 796.5503772548574 480.03933509981573L796.5503772548574 480.03933509981573Q796.5503772548574 455.74620258924097 809.7356047576278 441.60886894294447Q822.9208322603982 427.5003869979669 845.3674558865588 427.5003869979669L845.3674558865588 427.5003869979669Q852.8400465281726 427.5003869979669 865.7079053164343 429.7796714021658L865.7079053164343 429.7796714021658Q875.2866701543331 431.45307007866614 882.9612227051798 432.05895580636457L882.9612227051798 432.05895580636457L885.4424690186114 434.3382402105634L882.7592607959471 437.886999472797Q881.2878240286794 440.36824578622867 880.7684934049379 441.72427574822035Q880.2491627811964 443.08030571021203 880.2491627811964 445.3595901144109L880.2491627811964 445.3595901144109L880.2491627811964 506.64060371590836Q880.2491627811964 512.4686473823408 886.2791683568618 512.4686473823408L886.2791683568618 512.4686473823408Q890.8665888665784 512.4686473823408 895.6271195842088 509.12185002934L895.6271195842088 509.12185002934L899.1758788464424 513.9112324482894Q894.1845345182602 519.50846250417 888.5584527610605 522.7398530518949Q882.9612227051798 525.9712435996198 878.4026538967822 525.9712435996198L878.4026538967822 525.9712435996198Q870.4972877353838 525.9712435996198 866.9773801744692 521.2972679859463Q863.4286209122355 516.6232923722728 863.4286209122355 506.0058662868909L863.4286209122355 506.0058662868909Q855.9560302706217 517.0272161907385 847.9641090052663 521.4992298951792Q839.972187739911 525.9712435996198 830.6242365125638 525.9712435996198L830.6242365125638 525.9712435996198ZM837.8948652449449 511.199172524306Q853.6767458664228 511.199172524306 863.4286209122355 494.1766687461123L863.4286209122355 494.1766687461123L863.4286209122355 443.2822676194449Q855.3212928416043 437.886999472797 845.1654939773259 437.886999472797L845.1654939773259 437.886999472797Q831.6628977600468 437.886999472797 824.0749003131571 447.9562432331184Q816.4869028662673 458.02548699343976 816.4869028662673 476.51942753890114L816.4869028662673 476.51942753890114Q816.4869028662673 494.37863065534503 822.6034635458894 502.803327440485Q828.7488759268306 511.199172524306 837.8948652449449 511.199172524306L837.8948652449449 511.199172524306ZM913.082398882187 523.2591836756365L911.2070382964539 517.431140009204L914.7557975586875 516.3924787617211Q919.7182901855507 515.5846311247899 921.2762820567752 512.5552024862977Q922.8342739279998 509.5546255491246 922.8342739279998 502.2839968167435L922.8342739279998 502.2839968167435L922.8342739279998 449.5142351043429Q922.8342739279998 447.2349507001441 922.0264262910686 446.282844556618Q921.1897269528183 445.3595901144109 919.1124044578523 445.3595901144109L919.1124044578523 445.3595901144109L911.005076387221 445.3595901144109L909.1297158014879 440.36824578622867Q914.5249839481356 435.3769014580464 921.5936507712839 432.2609177155974Q928.6623175944322 429.1449339731484 934.0575857410801 429.1449339731484L934.0575857410801 429.1449339731484Q936.7696456650634 429.1449339731484 938.4141926402449 430.81833264964877Q940.0875913167453 432.4917313261492 940.0875913167453 434.9729776395808L940.0875913167453 434.9729776395808L940.0875913167453 455.54424068000816L941.1262525642284 455.54424068000816Q944.4441982159102 442.8783438009793 951.1954963245497 435.1749395488136Q957.9467944331892 427.5003869979669 965.8521605945876 427.5003869979669L965.8521605945876 427.5003869979669Q973.7286750546672 427.5003869979669 978.8354261881253 432.57828643010606Q983.9133256202643 437.6850375635642 983.9133256202643 446.60021327112673L983.9133256202643 446.60021327112673Q983.9133256202643 453.6688800942749 978.7200193828494 458.4582625132244Q973.5267131454344 463.2187932308548 965.6501986853549 463.2187932308548L965.6501986853549 463.2187932308548Q961.8994775138884 463.2187932308548 961.8994775138884 461.3434326451216L961.8994775138884 461.3434326451216Q961.8994775138884 460.73754691742323 963.342062579837 458.4582625132244Q964.8134993471048 456.1501264077066 965.8521605945876 453.8708420035078Q966.8908218420707 451.59155759930894 966.8908218420707 448.4755738568599L966.8908218420707 448.4755738568599Q966.8908218420707 444.95566629594526 965.2174231655703 442.9648989049362Q963.5728761903889 441.00298321524605 960.8608162664054 441.00298321524605L960.8608162664054 441.00298321524605Q956.5042093672406 441.00298321524605 951.7148269482911 446.39825136189387Q946.9542962306608 451.79351950854175 943.5209437737029 463.6515687506394Q940.0875913167453 475.4807662914181 940.0875913167453 493.77274492764667L940.0875913167453 493.77274492764667Q940.0875913167453 502.2839968167435 941.4436212787369 507.56385815811547Q942.7996512407286 512.8725712008063 946.1175968924106 517.431140009204L946.1175968924106 517.431140009204L948.3968812966094 520.3451618424203L946.1175968924106 523.2591836756365L913.082398882187 523.2591836756365ZM1035.6444260851822 525.9712435996198Q1022.5457536863686 525.9712435996198 1012.7938786405558 519.9412380239546Q1003.0420035947432 513.9112324482894 997.6178837467763 503.0052893497178Q992.2226156001285 492.09934625114624 992.2226156001285 477.76005069561694L992.2226156001285 477.76005069561694Q992.2226156001285 462.8148694123892 998.2526211757937 451.38959569007613Q1004.2826267514589 439.96432196776306 1015.3905317592634 433.732354482865Q1026.4984367670677 427.5003869979669 1041.0396942318298 427.5003869979669L1041.0396942318298 427.5003869979669Q1056.417651034842 427.5003869979669 1064.842347819982 435.6077150685982Q1073.238192903803 443.6861914379105 1073.238192903803 455.1114651602236L1073.238192903803 455.1114651602236Q1073.238192903803 463.016831321622 1068.9969928099142 470.2874600540031Q1064.7269410147064 477.55808878638413 1056.533057840118 482.11665759478177Q1048.310322964211 486.70407810449836 1037.3178247616825 486.70407810449836L1037.3178247616825 486.70407810449836Q1031.0858572767843 486.70407810449836 1023.8152285444033 484.5113488042565Q1016.5445998120223 482.34747120533353 1016.5445998120223 477.96201260484975L1016.5445998120223 477.96201260484975Q1016.5445998120223 476.31746562966833 1017.3524474489535 475.0768424729525Q1018.1891467872038 473.8073676149177 1019.2278080346867 473.8073676149177L1019.2278080346867 473.8073676149177Q1019.8625454637041 473.8073676149177 1023.0650843101101 474.96143566767665Q1026.296474857835 476.11550372043547 1031.4897810952502 476.11550372043547L1031.4897810952502 476.11550372043547Q1042.915054817563 476.11550372043547 1049.1470223024612 469.88353623553746Q1055.3789897873594 463.6515687506394 1055.3789897873594 454.9095032509908L1055.3789897873594 454.9095032509908Q1055.3789897873594 447.4369126093769 1050.503052264453 442.04164446272904Q1045.6271147415464 436.6463763160812 1037.5197866709154 436.6463763160812L1037.5197866709154 436.6463763160812Q1025.257813610352 436.6463763160812 1018.5065155017124 447.32150580410104Q1011.7552173930729 458.02548699343976 1011.7552173930729 477.76005069561694L1011.7552173930729 477.76005069561694Q1011.7552173930729 494.5805925645779 1018.910439320178 504.0439505972009Q1026.0945129486022 513.5073086298238 1039.5971091658812 513.5073086298238L1039.5971091658812 513.5073086298238Q1056.2156891256095 513.5073086298238 1067.0062254189052 502.68792063520914L1067.0062254189052 502.68792063520914Q1067.6409628479223 502.0820349075107 1068.6796240954054 502.0820349075107L1068.6796240954054 502.0820349075107Q1070.324171070587 502.0820349075107 1072.1129765523633 503.7265818826922Q1073.8729303328205 505.39998055919256 1073.8729303328205 507.2753411449258L1073.8729303328205 507.2753411449258Q1073.8729303328205 507.88122687262415 1073.4401548130359 508.4005574963657Q1073.0362309945704 508.91988812010715 1073.0362309945704 509.12185002934L1073.0362309945704 509.12185002934Q1065.967564171422 517.431140009204 1056.3022442295664 521.701191804412Q1046.6657759890295 525.9712435996198 1035.6444260851822 525.9712435996198L1035.6444260851822 525.9712435996198ZM1135.153943934318 525.9712435996198Q1122.0552715355045 525.9712435996198 1112.3033964896917 519.9412380239546Q1102.52266974256 513.9112324482894 1097.1274015959125 503.0052893497178Q1091.7321334492644 492.09934625114624 1091.7321334492644 477.76005069561694L1091.7321334492644 477.76005069561694Q1091.7321334492644 462.8148694123892 1097.7621390249296 451.38959569007613Q1103.7921446005948 439.96432196776306 1114.9000496083995 433.732354482865Q1126.0079546162037 427.5003869979669 1140.5492120809658 427.5003869979669L1140.5492120809658 427.5003869979669Q1155.927168883978 427.5003869979669 1164.3230139677992 435.6077150685982Q1172.747710752939 443.6861914379105 1172.747710752939 455.1114651602236L1172.747710752939 455.1114651602236Q1172.747710752939 463.016831321622 1168.4776589577311 470.2874600540031Q1164.2364588638422 477.55808878638413 1156.013723987935 482.11665759478177Q1147.819840813347 486.70407810449836 1136.7984909094994 486.70407810449836L1136.7984909094994 486.70407810449836Q1130.5665234246012 486.70407810449836 1123.2958946922204 484.5113488042565Q1116.0252659598395 482.34747120533353 1116.0252659598395 477.96201260484975L1116.0252659598395 477.96201260484975Q1116.0252659598395 476.31746562966833 1116.8619652980897 475.0768424729525Q1117.6986646363398 473.8073676149177 1118.737325883823 473.8073676149177L1118.737325883823 473.8073676149177Q1119.37206331284 473.8073676149177 1122.5746021592458 474.96143566767665Q1125.805992706971 476.11550372043547 1130.999298944386 476.11550372043547L1130.999298944386 476.11550372043547Q1142.424572666699 476.11550372043547 1148.6565401515973 469.88353623553746Q1154.8885076364952 463.6515687506394 1154.8885076364952 454.9095032509908L1154.8885076364952 454.9095032509908Q1154.8885076364952 447.4369126093769 1150.012570113589 442.04164446272904Q1145.1077808893633 436.6463763160812 1137.029304520051 436.6463763160812L1137.029304520051 436.6463763160812Q1124.767331459488 436.6463763160812 1118.0160333508484 447.32150580410104Q1111.2647352422089 458.02548699343976 1111.2647352422089 477.76005069561694L1111.2647352422089 477.76005069561694Q1111.2647352422089 494.5805925645779 1118.4199571693139 504.0439505972009Q1125.6040307977382 513.5073086298238 1139.1066270150172 513.5073086298238L1139.1066270150172 513.5073086298238Q1155.7252069747453 513.5073086298238 1166.5157432680412 502.68792063520914L1166.5157432680412 502.68792063520914Q1167.1504806970584 502.0820349075107 1168.1891419445415 502.0820349075107L1168.1891419445415 502.0820349075107Q1169.833688919723 502.0820349075107 1171.5936427001802 503.7265818826922Q1173.3824481819565 505.39998055919256 1173.3824481819565 507.2753411449258L1173.3824481819565 507.2753411449258Q1173.3824481819565 507.88122687262415 1172.949672662172 508.4005574963657Q1172.5457488437064 508.91988812010715 1172.5457488437064 509.12185002934L1172.5457488437064 509.12185002934Q1165.477082020558 517.431140009204 1155.8117620787025 521.701191804412Q1146.1464421368464 525.9712435996198 1135.153943934318 525.9712435996198L1135.153943934318 525.9712435996198ZM1194.3576350408493 523.2591836756365L1192.4822744551163 517.431140009204L1196.002182016031 516.3924787617211Q1200.993526344213 515.5846311247899 1202.5515182154377 512.5552024862977Q1204.109510086662 509.5546255491246 1204.109510086662 502.2839968167435L1204.109510086662 502.2839968167435L1204.109510086662 449.5142351043429Q1204.109510086662 447.2349507001441 1203.272810748412 446.282844556618Q1202.4649631114808 445.3595901144109 1200.3876406165145 445.3595901144109L1200.3876406165145 445.3595901144109L1192.2803125458836 445.3595901144109L1190.4049519601504 440.36824578622867Q1195.800220106798 435.3769014580464 1202.8688869299463 432.2609177155974Q1209.9375537530946 429.1449339731484 1215.3328218997424 429.1449339731484L1215.3328218997424 429.1449339731484Q1218.044881823726 429.1449339731484 1219.689428798907 430.81833264964877Q1221.3628274754078 432.4917313261492 1221.3628274754078 434.9729776395808L1221.3628274754078 434.9729776395808L1221.3628274754078 455.54424068000816L1222.4014887228907 455.54424068000816Q1225.7194343745725 442.8783438009793 1232.470732483212 435.1749395488136Q1239.2220305918518 427.5003869979669 1247.1273967532502 427.5003869979669L1247.1273967532502 427.5003869979669Q1255.0039112133295 427.5003869979669 1260.1106623467876 432.57828643010606Q1265.188561778927 437.6850375635642 1265.188561778927 446.60021327112673L1265.188561778927 446.60021327112673Q1265.188561778927 453.6688800942749 1259.9952555415116 458.4582625132244Q1254.8019493040968 463.2187932308548 1246.8965831426983 463.2187932308548L1246.8965831426983 463.2187932308548Q1243.1747136725508 463.2187932308548 1243.1747136725508 461.3434326451216L1243.1747136725508 461.3434326451216Q1243.1747136725508 460.73754691742323 1244.6172987384994 458.4582625132244Q1246.088735505767 456.1501264077066 1247.1273967532502 453.8708420035078Q1248.166058000733 451.59155759930894 1248.166058000733 448.4755738568599L1248.166058000733 448.4755738568599Q1248.166058000733 444.95566629594526 1246.4926593242326 442.9648989049362Q1244.8192606477323 441.00298321524605 1242.1360524250676 441.00298321524605L1242.1360524250676 441.00298321524605Q1237.779445525903 441.00298321524605 1232.9900631069536 446.39825136189387Q1228.2006806880042 451.79351950854175 1224.7961799323655 463.6515687506394Q1221.3628274754078 475.4807662914181 1221.3628274754078 493.77274492764667L1221.3628274754078 493.77274492764667Q1221.3628274754078 502.2839968167435 1222.7188574373995 507.56385815811547Q1224.046035698072 512.8725712008063 1227.392833051073 517.431140009204L1227.392833051073 517.431140009204L1229.6721174552717 520.3451618424203L1227.392833051073 523.2591836756365L1194.3576350408493 523.2591836756365ZM1275.9790980722225 523.2591836756365L1273.497851758791 516.8252542815056L1278.0564205671885 515.7865930340226Q1285.1250873903368 513.5073086298238 1287.5197785998116 510.160511276823Q1289.914469809286 506.84256562514116 1289.914469809286 498.3313137360443L1289.914469809286 498.3313137360443L1289.914469809286 405.2557252810392Q1289.914469809286 402.7744789676076 1288.9623636657602 401.8512245254004Q1288.0391092235532 400.89911838187436 1285.961786728587 400.89911838187436L1285.961786728587 400.89911838187436L1274.9404368247397 400.89911838187436L1272.6611524205407 393.8304515587261Q1280.7684804911719 390.7144678162771 1294.0691147992184 388.11781469756954Q1307.3697491072644 385.521161578862 1319.4009085572761 385.521161578862L1319.4009085572761 385.521161578862Q1345.367439744351 385.521161578862 1357.8313747141474 395.8212189497352Q1370.2953096839433 406.0924246192894 1370.2953096839433 422.5090426697847L1370.2953096839433 422.5090426697847Q1370.2953096839433 433.0976170538476 1365.4193721610372 441.72427574822035Q1360.5434346381307 450.3509344425931 1350.560745981766 454.9095032509908L1350.560745981766 454.9095032509908Q1363.0246809515625 459.0641482409228 1370.0933477747108 467.48884502606273Q1377.162014597859 475.8846901098837 1377.162014597859 486.069340675481L1377.162014597859 486.069340675481Q1377.162014597859 503.3226580642266 1365.6213340702698 513.276495019272Q1354.109505244 523.2591836756365 1328.5468978753902 523.2591836756365L1328.5468978753902 523.2591836756365L1275.9790980722225 523.2591836756365ZM1329.5855591228733 513.5073086298238Q1342.6842315216868 513.5073086298238 1350.1568221633006 505.71734927370125Q1357.6294128049144 497.9273899175787 1357.6294128049144 485.2326413372308L1357.6294128049144 485.2326413372308Q1357.6294128049144 474.24014313470235 1349.637491539559 466.65214568781255Q1341.6455702742037 459.0641482409228 1328.1429740569247 459.0641482409228L1328.1429740569247 459.0641482409228Q1320.8723453245439 459.0641482409228 1315.4482254765767 456.78486383672396L1315.4482254765767 456.78486383672396Q1312.7650172539124 455.34227877077535 1312.7650172539124 452.4282569375591L1312.7650172539124 452.4282569375591Q1312.7650172539124 449.3122731951101 1315.2462635673442 449.3122731951101L1315.2462635673442 449.3122731951101Q1316.2849248148268 449.3122731951101 1318.7950228295776 449.7161970135757Q1321.2762691430094 450.14897253336034 1324.7961767039237 450.14897253336034L1324.7961767039237 450.14897253336034Q1337.4909252842717 450.14897253336034 1344.646147211377 442.76293699570334Q1351.8013691384822 435.3769014580464 1351.8013691384822 422.91296648825033L1351.8013691384822 422.91296648825033Q1351.8013691384822 410.88180703823883 1343.8094478731268 403.40921639662497Q1335.8175266077715 395.90777405369215 1321.4782310522419 395.90777405369215L1321.4782310522419 395.90777405369215Q1308.812334173213 395.90777405369215 1308.812334173213 404.8518014625736L1308.812334173213 404.8518014625736L1308.812334173213 488.7814005994644Q1308.812334173213 504.36131931170956 1314.9288948528351 508.91988812010715Q1321.0743072337764 513.5073086298238 1329.5855591228733 513.5073086298238L1329.5855591228733 513.5073086298238ZM1420.5838250829124 525.9712435996198Q1412.678458921514 525.9712435996198 1409.245106464556 521.2972679859463Q1405.8117540075987 516.6232923722728 1405.8117540075987 506.0058662868909L1405.8117540075987 506.0058662868909L1405.8117540075987 396.34054957347666Q1405.8117540075987 394.0612651692779 1405.0039063706672 393.1091590257518Q1404.167207032417 392.1859045835447 1402.0898845374509 392.1859045835447L1402.0898845374509 392.1859045835447L1393.98255646682 392.1859045835447L1392.1071958810867 387.39652216459524Q1397.5024640277343 382.40517783641303 1404.5711308508826 379.2026389900071Q1411.639797674031 375.97124844228216 1417.2370277299115 375.97124844228216L1417.2370277299115 375.97124844228216Q1419.9490876538948 375.97124844228216 1421.622486330395 377.6446471187826Q1423.2670333055767 379.289194093964 1423.2670333055767 382.0012540179474L1423.2670333055767 382.0012540179474L1422.8631094871112 506.64060371590836Q1422.8631094871112 509.7565874583574 1424.3056945530598 511.42998613485776Q1425.7771313203275 513.0745331100393 1428.4603395429917 513.0745331100393L1428.4603395429917 513.0745331100393Q1433.6536457804068 513.0745331100393 1437.8082907703388 509.12185002934L1437.8082907703388 509.12185002934L1441.5590119418052 513.9112324482894Q1436.7696295228557 519.3065005949372 1430.9704375577426 522.6244462466191Q1425.14239389131 525.9712435996198 1420.5838250829124 525.9712435996198L1420.5838250829124 525.9712435996198ZM1498.483418644138 525.9712435996198Q1477.2774181746931 525.9712435996198 1464.8134832048972 512.5552024862977Q1452.3495482351009 499.1680130742945 1452.3495482351009 476.51942753890114L1452.3495482351009 476.51942753890114Q1452.3495482351009 453.8708420035078 1464.8134832048972 440.68561450073736Q1477.2774181746931 427.5003869979669 1498.483418644138 427.5003869979669L1498.483418644138 427.5003869979669Q1512.3899386798826 427.5003869979669 1522.7765511547127 433.5303925736322Q1533.1631636295429 439.5315464479784 1538.7603936854234 450.55289635182595Q1544.3864754426231 461.5742462556734 1544.3864754426231 476.51942753890114L1544.3864754426231 476.51942753890114Q1544.3864754426231 491.46460882212887 1538.673838581467 502.68792063520914Q1532.9612017203099 513.9112324482894 1522.5745892454797 519.9412380239546Q1512.18797677065 525.9712435996198 1498.483418644138 525.9712435996198L1498.483418644138 525.9712435996198ZM1498.0506431243534 515.7865930340226Q1509.9086923664509 515.7865930340226 1517.265876202789 505.08261184468387Q1524.651911740446 494.37863065534503 1524.651911740446 476.92335135736676L1524.651911740446 476.92335135736676Q1524.651911740446 468.0081756498043 1522.1418137256956 458.9775931369659Q1519.6605674122638 449.9181589228085 1513.9479305511072 443.5996363339536Q1508.2352936899506 437.25226204377964 1499.0893043718365 437.25226204377964L1499.0893043718365 437.25226204377964Q1486.8273313112732 437.25226204377964 1479.470147474935 448.0716500383943Q1472.084111937278 458.86218633169 1472.084111937278 476.72138944813395L1472.084111937278 476.72138944813395Q1472.084111937278 494.5805925645779 1479.0373719551508 505.1980186499597Q1486.0194836743422 515.7865930340226 1498.0506431243534 515.7865930340226L1498.0506431243534 515.7865930340226ZM1607.110074110069 525.9712435996198Q1585.9329253419437 525.9712435996198 1573.4689903721473 512.5552024862977Q1561.005055402351 499.1680130742945 1561.005055402351 476.51942753890114L1561.005055402351 476.51942753890114Q1561.005055402351 453.8708420035078 1573.4689903721473 440.68561450073736Q1585.9329253419437 427.5003869979669 1607.110074110069 427.5003869979669L1607.110074110069 427.5003869979669Q1621.0454458471331 427.5003869979669 1631.4320583219633 433.5303925736322Q1641.818670796793 439.5315464479784 1647.415900852674 450.55289635182595Q1653.0131309085546 461.5742462556734 1653.0131309085546 476.51942753890114L1653.0131309085546 476.51942753890114Q1653.0131309085546 491.46460882212887 1647.300494047398 502.68792063520914Q1641.5878571862413 513.9112324482894 1631.2012447114112 519.9412380239546Q1620.814632236581 525.9712435996198 1607.110074110069 525.9712435996198L1607.110074110069 525.9712435996198ZM1606.7061502916035 515.7865930340226Q1618.5353478323823 515.7865930340226 1625.9213833700392 505.08261184468387Q1633.2785672063774 494.37863065534503 1633.2785672063774 476.92335135736676L1633.2785672063774 476.92335135736676Q1633.2785672063774 468.0081756498043 1630.7973208929457 458.9775931369659Q1628.316074579514 449.9181589228085 1622.6034377183573 443.5996363339536Q1616.8908008572007 437.25226204377964 1607.7448115390866 437.25226204377964L1607.7448115390866 437.25226204377964Q1595.4828384785233 437.25226204377964 1588.0968029408664 448.0716500383943Q1580.7396191045286 458.86218633169 1580.7396191045286 476.72138944813395L1580.7396191045286 476.72138944813395Q1580.7396191045286 494.5805925645779 1587.6928791224009 505.1980186499597Q1594.6461391402731 515.7865930340226 1606.7061502916035 515.7865930340226L1606.7061502916035 515.7865930340226ZM1813.601700449955 525.9712435996198Q1805.9271478991081 525.9712435996198 1802.4937954421507 521.2972679859463Q1799.0604429851928 516.6232923722728 1799.0604429851928 506.0058662868909L1799.0604429851928 506.0058662868909L1799.0604429851928 461.14147073588884Q1799.0604429851928 441.83968255349623 1785.1539229494483 441.83968255349623L1785.1539229494483 441.83968255349623Q1777.4505186972824 441.83968255349623 1771.3339580176603 447.9562432331184Q1765.188545636719 454.07280391274054 1761.6686380758047 465.20956062186394Q1758.1487305148898 476.31746562966833 1757.9179169043382 490.85872309443045L1757.9179169043382 490.85872309443045L1757.9179169043382 493.13800749862924Q1757.9179169043382 502.68792063520914 1759.4759087755629 508.51596430164153Q1761.033900646787 514.315156266755 1766.0252449749692 520.3451618424203L1766.0252449749692 520.3451618424203L1763.7459605707709 523.2591836756365L1741.0973750353774 523.2591836756365L1741.0973750353774 461.14147073588884Q1741.0973750353774 451.59155759930894 1737.4620606691865 446.71562007640256Q1733.826746302996 441.83968255349623 1726.7580794798482 441.83968255349623L1726.7580794798482 441.83968255349623Q1718.6796031105355 441.83968255349623 1712.5341907295947 448.2736119476271Q1706.4176300499726 454.7075413417579 1703.0996843982903 466.33477697330386Q1699.7528870452898 477.96201260484975 1699.7528870452898 493.13800749862924L1699.7528870452898 493.13800749862924Q1699.7528870452898 501.85122129695895 1701.1089170072814 507.2753411449258Q1702.4649469692731 512.6706092915736 1705.782892620955 517.431140009204L1705.782892620955 517.431140009204L1708.0621770251537 520.3451618424203L1705.782892620955 523.2591836756365L1672.7476946107317 523.2591836756365L1670.9011857263172 517.431140009204L1674.421093287232 516.3924787617211Q1679.412437615414 515.5846311247899 1680.9704294866387 512.5552024862977Q1682.528421357863 509.5546255491246 1682.528421357863 502.2839968167435L1682.528421357863 502.2839968167435L1682.528421357863 449.5142351043429Q1682.528421357863 447.2349507001441 1681.6917220196128 446.282844556618Q1680.8550226813627 445.3595901144109 1678.777700186397 445.3595901144109L1678.777700186397 445.3595901144109L1670.6703721157655 445.3595901144109L1668.8238632313514 440.36824578622867Q1674.219131377999 435.3769014580464 1681.2877982011473 432.2609177155974Q1688.327613322977 429.1449339731484 1693.7517331709437 429.1449339731484L1693.7517331709437 429.1449339731484Q1696.434941393608 429.1449339731484 1698.1083400701082 430.81833264964877Q1699.7528870452898 432.4917313261492 1699.7528870452898 434.9729776395808L1699.7528870452898 434.9729776395808L1699.7528870452898 455.54424068000816Q1704.5422694642393 443.08030571021203 1714.005627496862 435.29034635408954Q1723.440133828166 427.5003869979669 1733.826746302996 427.5003869979669L1733.826746302996 427.5003869979669Q1745.4539819345418 427.5003869979669 1751.2820256009745 434.2516851066065Q1757.1100692674067 441.00298321524605 1757.9179169043382 455.54424068000816L1757.9179169043382 455.54424068000816Q1762.7072993232878 443.2822676194449 1772.2572124598673 435.3769014580464Q1781.8071255964473 427.5003869979669 1791.9917761620445 427.5003869979669L1791.9917761620445 427.5003869979669Q1804.6576730410734 427.5003869979669 1810.37030990223 435.6077150685982Q1816.0829467633866 443.6861914379105 1816.0829467633866 461.14147073588884L1816.0829467633866 461.14147073588884L1816.0829467633866 506.64060371590836Q1816.0829467633866 513.0745331100393 1821.5070666113534 513.0745331100393L1821.5070666113534 513.0745331100393Q1826.2675973289838 513.0745331100393 1830.8550178387004 509.12185002934L1830.8550178387004 509.12185002934L1834.5768873088482 513.9112324482894Q1829.5855429806657 519.50846250417 1823.988312924785 522.7398530518949Q1818.3910828689045 525.9712435996198 1813.601700449955 525.9712435996198L1813.601700449955 525.9712435996198Z " fill="#dea2ac" transform="matrix(0.47694922307900584,0,0,0.47694922307900584,0,84.9095941691884)"/></g></svg>